<svg width="239" height="32" viewBox="0 0 239 32" fill="none" xmlns="http://www.w3.org/2000/svg">
<path fill-rule="evenodd" clip-rule="evenodd" d="M13.6182 24.7861C13.2412 24.5731 12.8382 24.4061 12.4152 24.3131C9.57022 23.6871 8.26322 25.5411 6.36922 28.0801C6.36922 28.0801 4.48921 31.0371 2.24521 30.6931C1.67421 30.6061 -0.0407849 30.0611 0.195215 28.0681C0.238215 27.7011 0.352215 27.3451 0.506215 27.0091L9.85822 6.5401C10.5572 4.9281 11.7612 2.6631 14.2852 2.6631C16.8762 2.6631 17.9212 4.6191 18.6142 6.2441L27.8352 25.9321C29.3102 28.8411 26.3962 31.5911 23.9852 30.4671C22.3882 29.7221 15.5062 25.8501 13.6182 24.7861Z" fill="#F0047F"/>
<path fill-rule="evenodd" clip-rule="evenodd" d="M164.192 21.9268C165.076 21.4028 165.768 20.6718 166.271 19.7328C166.773 18.7938 167.024 17.7358 167.024 16.5568C167.024 15.3568 166.773 14.2858 166.271 13.3478C165.768 12.4088 165.076 11.6778 164.192 11.1548C163.307 10.6298 162.297 10.3678 161.163 10.3678C160.028 10.3678 159.018 10.6358 158.134 11.1698C157.25 11.7048 156.556 12.4428 156.054 13.3808C155.552 14.3198 155.301 15.3778 155.301 16.5568C155.301 17.7358 155.552 18.7938 156.054 19.7328C156.556 20.6718 157.25 21.4028 158.134 21.9268C159.018 22.4498 160.028 22.7118 161.163 22.7118C162.297 22.7118 163.307 22.4498 164.192 21.9268ZM170.069 1.2228V24.8178C170.069 25.0108 169.912 25.1678 169.718 25.1678H167.375C167.181 25.1678 167.024 25.0108 167.024 24.8178V21.7298C166.369 22.8878 165.49 23.7768 164.388 24.3988C163.286 25.0208 162.003 25.3318 160.541 25.3318C158.904 25.3318 157.458 24.9548 156.202 24.2018C154.947 23.4488 153.97 22.4018 153.271 21.0588C152.573 19.7168 152.224 18.1828 152.224 16.4578C152.224 14.7558 152.573 13.2438 153.271 11.9238C153.97 10.6028 154.947 9.5718 156.202 8.8288C157.458 8.0868 158.892 7.7158 160.508 7.7158C161.992 7.7158 163.292 8.0218 164.405 8.6328C165.517 9.2438 166.39 10.1278 167.024 11.2848V1.2228C167.024 1.0298 167.181 0.871796 167.375 0.871796H169.718C169.912 0.871796 170.069 1.0298 170.069 1.2228Z" fill="#8787A0"/>
<path fill-rule="evenodd" clip-rule="evenodd" d="M173.56 7.8467H175.904C176.097 7.8467 176.254 8.0037 176.254 8.1977V24.8177C176.254 25.0107 176.097 25.1677 175.904 25.1677H173.56C173.366 25.1677 173.209 25.0107 173.209 24.8177V8.1977C173.209 8.0037 173.366 7.8467 173.56 7.8467ZM176.074 1.4937C176.434 1.8667 176.615 2.3347 176.615 2.9027C176.615 3.4707 176.434 3.9397 176.074 4.3107C175.714 4.6817 175.26 4.8677 174.715 4.8677C174.169 4.8677 173.716 4.6817 173.357 4.3107C172.997 3.9397 172.816 3.4707 172.816 2.9027C172.816 2.3347 172.997 1.8667 173.357 1.4937C173.716 1.1237 174.169 0.937698 174.715 0.937698C175.26 0.937698 175.714 1.1237 176.074 1.4937Z" fill="#8787A0"/>
<path fill-rule="evenodd" clip-rule="evenodd" d="M190.198 21.1729C191.027 20.6719 191.677 19.9789 192.146 19.0949C192.615 18.2099 192.85 17.2119 192.85 16.0989C192.85 14.9629 192.615 13.9529 192.146 13.0689C191.677 12.1859 191.027 11.4919 190.198 10.9899C189.368 10.4879 188.419 10.2369 187.349 10.2369C186.279 10.2369 185.324 10.4879 184.484 10.9899C183.643 11.4919 182.983 12.1859 182.503 13.0689C182.022 13.9529 181.783 14.9629 181.783 16.0989C181.804 17.8009 182.328 19.1979 183.354 20.2889C184.38 21.3809 185.712 21.9269 187.349 21.9269C188.419 21.9269 189.368 21.6759 190.198 21.1729ZM195.577 7.84689C195.771 7.84689 195.927 8.00389 195.927 8.19689V23.3999C195.927 25.0599 195.562 26.5109 194.831 27.7549C194.099 28.9989 193.068 29.9539 191.737 30.6199C190.405 31.2849 188.855 31.6179 187.087 31.6179C184.635 31.6179 182.344 30.8739 180.214 29.3849C180.063 29.2799 180.022 29.0739 180.117 28.9169L181.086 27.3099C181.193 27.1329 181.43 27.0839 181.595 27.2089C182.352 27.7869 183.136 28.2259 183.944 28.5249C184.86 28.8619 185.864 29.0319 186.956 29.0319C188.746 29.0319 190.176 28.5289 191.246 27.5259C192.315 26.5219 192.85 25.1789 192.85 23.4979V21.0749C192.239 22.1229 191.409 22.9369 190.361 23.5149C189.313 24.0929 188.113 24.3819 186.76 24.3819C185.21 24.3819 183.84 24.0269 182.65 23.3189C181.461 22.6099 180.539 21.6209 179.884 20.3549C179.228 19.0889 178.901 17.6369 178.901 15.9999C178.901 14.3849 179.228 12.9549 179.884 11.7109C180.539 10.4659 181.461 9.49489 182.65 8.79589C183.84 8.09789 185.21 7.74789 186.76 7.74789C188.135 7.74789 189.341 8.03189 190.378 8.59989C191.414 9.16789 192.239 9.97589 192.85 11.0229V8.19689C192.85 8.00389 193.007 7.84689 193.201 7.84689H195.577Z" fill="#8787A0"/>
<path fill-rule="evenodd" clip-rule="evenodd" d="M199.566 7.8467H201.909C202.103 7.8467 202.26 8.0037 202.26 8.1977V24.8177C202.26 25.0107 202.103 25.1677 201.909 25.1677H199.566C199.372 25.1677 199.214 25.0107 199.214 24.8177V8.1977C199.214 8.0037 199.372 7.8467 199.566 7.8467ZM202.08 1.4937C202.44 1.8667 202.62 2.3347 202.62 2.9027C202.62 3.4707 202.44 3.9397 202.08 4.3107C201.72 4.6817 201.266 4.8677 200.721 4.8677C200.175 4.8677 199.722 4.6817 199.362 4.3107C199.003 3.9397 198.822 3.4707 198.822 2.9027C198.822 2.3347 199.003 1.8667 199.362 1.4937C199.722 1.1237 200.175 0.937698 200.721 0.937698C201.266 0.937698 201.72 1.1237 202.08 1.4937Z" fill="#8787A0"/>
<path fill-rule="evenodd" clip-rule="evenodd" d="M215.697 23.7559C215.751 23.9109 215.691 24.0859 215.55 24.1709C214.296 24.9229 213.022 25.2989 211.729 25.2989C210.354 25.2989 209.241 24.8899 208.389 24.0709C207.538 23.2529 207.113 22.0139 207.113 20.3549V10.2349H205.008C204.814 10.2349 204.657 10.0769 204.657 9.88389V8.26089C204.657 8.06689 204.814 7.90889 205.008 7.90889H207.113V4.13789C207.113 3.94389 207.269 3.78589 207.464 3.78589H209.84C210.034 3.78589 210.19 3.94389 210.19 4.13789V7.90889H215.144C215.338 7.90889 215.495 8.06689 215.495 8.26089V9.88389C215.495 10.0769 215.338 10.2349 215.144 10.2349H210.19V19.7979C210.19 20.7589 210.365 21.4459 210.715 21.8609C211.063 22.2769 211.588 22.4839 212.286 22.4839C213.012 22.4839 213.789 22.2749 214.616 21.8559C214.805 21.7599 215.036 21.8519 215.105 22.0519L215.697 23.7559Z" fill="#8787A0"/>
<path fill-rule="evenodd" clip-rule="evenodd" d="M227.927 21.7461C228.92 21.0591 229.515 20.1471 229.711 19.0131V17.2771H224.636C223.261 17.2771 222.24 17.4841 221.574 17.8991C220.908 18.3131 220.576 18.9691 220.576 19.8631C220.576 20.7591 220.914 21.4681 221.591 21.9921C222.268 22.5161 223.173 22.7771 224.309 22.7771C225.728 22.7771 226.934 22.4331 227.927 21.7461ZM229.744 24.8171V22.7451C228.456 24.4471 226.437 25.2991 223.687 25.2991C222.486 25.2991 221.433 25.0691 220.527 24.6111C219.621 24.1531 218.922 23.5201 218.431 22.7121C217.941 21.9051 217.695 20.9991 217.695 19.9951C217.695 18.4451 218.268 17.2171 219.413 16.3101C220.56 15.4051 222.158 14.9411 224.21 14.9191H229.711V14.1001C229.711 12.8791 229.335 11.9341 228.582 11.2681C227.828 10.6021 226.732 10.2691 225.291 10.2691C223.642 10.2691 221.963 10.8251 220.255 11.9341C220.09 12.0421 219.868 11.9951 219.765 11.8261L218.856 10.3341C218.756 10.1711 218.805 9.95709 218.967 9.85509C220.101 9.14309 221.156 8.62109 222.131 8.28909C223.19 7.92909 224.45 7.74809 225.913 7.74809C228.074 7.74809 229.744 8.27809 230.923 9.33709C232.102 10.3951 232.702 11.8741 232.724 13.7731L232.756 24.8161C232.756 25.0111 232.599 25.1681 232.405 25.1681H230.095C229.902 25.1681 229.744 25.0111 229.744 24.8171Z" fill="#8787A0"/>
<path fill-rule="evenodd" clip-rule="evenodd" d="M235.987 0.872101H238.331C238.525 0.872101 238.682 1.0291 238.682 1.2231V24.8171C238.682 25.0111 238.525 25.1681 238.331 25.1681H235.987C235.794 25.1681 235.636 25.0111 235.636 24.8171V1.2231C235.636 1.0291 235.794 0.872101 235.987 0.872101Z" fill="#8787A0"/>
<path fill-rule="evenodd" clip-rule="evenodd" d="M52.5479 21.0742C53.3119 20.5722 53.7699 19.9392 53.9229 19.1752V17.6032H49.9609C48.9789 17.6032 48.2519 17.7612 47.7829 18.0782C47.3139 18.3942 47.0789 18.9022 47.0789 19.6002C47.0789 20.2782 47.3239 20.8182 47.8159 21.2212C48.3069 21.6262 48.9789 21.8282 49.8289 21.8282C50.8769 21.8282 51.7829 21.5772 52.5479 21.0742ZM53.9559 24.8492V23.1372C53.3659 23.8802 52.6019 24.4472 51.6629 24.8412C50.7249 25.2332 49.6439 25.4292 48.4219 25.4292C46.5659 25.4292 45.0919 24.9222 44.0009 23.9072C42.9089 22.8912 42.3629 21.5652 42.3629 19.9282C42.3629 18.2692 42.9469 16.9762 44.1149 16.0482C45.2829 15.1202 46.9369 14.6452 49.0759 14.6232H53.9229V14.2962C53.9229 13.3572 53.6109 12.6322 52.9889 12.1182C52.3669 11.6052 51.4559 11.3482 50.2549 11.3482C48.7159 11.3482 47.0789 11.8032 45.3469 12.7102C45.1669 12.8032 44.9439 12.7302 44.8609 12.5462L43.5839 9.7262C43.5059 9.5532 43.5789 9.3482 43.7499 9.2652C45.0319 8.6432 46.2399 8.1802 47.3739 7.8782C48.5959 7.5502 49.9389 7.3862 51.4019 7.3862C53.7589 7.3862 55.5869 7.9432 56.8869 9.0562C58.1849 10.1702 58.8459 11.7202 58.8669 13.7072L58.8999 24.8482C58.9009 25.0432 58.7429 25.2002 58.5489 25.2002H54.3069C54.1119 25.2002 53.9559 25.0442 53.9559 24.8492Z" fill="#2B2B3A"/>
<path fill-rule="evenodd" clip-rule="evenodd" d="M70.2637 11.709C68.9967 11.709 67.9657 12.141 67.1687 13.003C66.3717 13.865 65.9737 15.006 65.9737 16.425C65.9737 17.844 66.3667 18.995 67.1527 19.879C67.9387 20.764 68.9427 21.205 70.1647 21.205C71.8727 21.205 73.1737 20.608 74.0677 19.415C74.1797 19.267 74.3897 19.231 74.5437 19.336L77.4497 21.31C77.6097 21.419 77.6497 21.637 77.5427 21.798C76.8157 22.899 75.8357 23.761 74.6027 24.382C73.2597 25.059 71.6937 25.397 69.9037 25.397C68.1347 25.397 66.5737 25.026 65.2207 24.284C63.8667 23.542 62.8137 22.494 62.0607 21.14C61.3077 19.787 60.9307 18.226 60.9307 16.457C60.9307 14.668 61.3077 13.09 62.0607 11.726C62.8137 10.361 63.8717 9.30199 65.2367 8.54899C66.6007 7.79599 68.1787 7.41899 69.9687 7.41899C71.6497 7.41899 73.1457 7.74099 74.4547 8.38499C75.6547 8.97499 76.6337 9.78799 77.3937 10.826C77.5097 10.984 77.4767 11.207 77.3177 11.322L74.4537 13.387C74.3107 13.49 74.1107 13.472 73.9927 13.34C73.0167 12.253 71.7737 11.709 70.2637 11.709Z" fill="#2B2B3A"/>
<path fill-rule="evenodd" clip-rule="evenodd" d="M91.5479 14.9512C91.5039 13.7942 91.1339 12.8662 90.4349 12.1682C89.7359 11.4692 88.8089 11.1192 87.6519 11.1192C86.5599 11.1192 85.6489 11.4642 84.9169 12.1512C84.1859 12.8392 83.7219 13.7722 83.5259 14.9512H91.5479ZM94.0859 9.87519C95.5599 11.5132 96.2969 13.7942 96.2969 16.7202C96.2969 17.0632 96.2919 17.3552 96.2819 17.5962C96.2759 17.7842 96.1199 17.9302 95.9319 17.9302H83.6239C83.9069 19.0442 84.4529 19.9122 85.2609 20.5342C86.0689 21.1562 87.0399 21.4682 88.1759 21.4682C89.0049 21.4682 89.8019 21.3092 90.5659 20.9932C91.2319 20.7172 91.8389 20.3292 92.3889 19.8302C92.5269 19.7042 92.7389 19.7132 92.8699 19.8462L95.0459 22.0482C95.1779 22.1802 95.1839 22.3972 95.0539 22.5322C94.2039 23.4172 93.1939 24.1042 92.0239 24.5952C90.7459 25.1302 89.3209 25.3972 87.7499 25.3972C85.8939 25.3972 84.2729 25.0262 82.8869 24.2842C81.4999 23.5422 80.4309 22.4942 79.6779 21.1392C78.9249 19.7872 78.5479 18.2252 78.5479 16.4572C78.5479 14.6682 78.9299 13.0902 79.6939 11.7252C80.4579 10.3612 81.5269 9.30219 82.9029 8.54919C84.2779 7.79619 85.8509 7.41919 87.6189 7.41919C90.4559 7.41919 92.6119 8.23819 94.0859 9.87519Z" fill="#2B2B3A"/>
<path fill-rule="evenodd" clip-rule="evenodd" d="M107.564 11.4961C106.626 11.2011 105.785 11.0541 105.043 11.0541C104.431 11.0541 103.94 11.1641 103.569 11.3821C103.198 11.6001 103.012 11.9281 103.012 12.3641C103.012 12.8451 103.263 13.2161 103.765 13.4771C104.267 13.7391 105.086 14.0341 106.221 14.3611C107.465 14.7331 108.492 15.0991 109.299 15.4591C110.107 15.8181 110.806 16.3531 111.395 17.0631C111.985 17.7721 112.28 18.7061 112.28 19.8631C112.28 21.6091 111.608 22.9691 110.265 23.9391C108.923 24.9111 107.204 25.3971 105.108 25.3971C103.668 25.3971 102.281 25.1841 100.949 24.7591C99.7165 24.3651 98.6345 23.8171 97.7025 23.1151C97.5695 23.0161 97.5295 22.8351 97.6005 22.6851L98.9305 19.9191C99.0245 19.7241 99.2715 19.6581 99.4485 19.7851C100.256 20.3641 101.144 20.8211 102.112 21.1561C103.213 21.5391 104.256 21.7291 105.239 21.7291C105.916 21.7291 106.456 21.6151 106.86 21.3861C107.264 21.1561 107.465 20.8121 107.465 20.3541C107.465 19.8521 107.209 19.4591 106.696 19.1751C106.183 18.8921 105.359 18.5861 104.224 18.2591C103.023 17.9091 102.024 17.5591 101.228 17.2111C100.43 16.8611 99.7485 16.3321 99.1805 15.6221C98.6125 14.9131 98.3295 13.9901 98.3295 12.8551C98.3295 11.1081 98.9845 9.75609 100.294 8.79509C101.604 7.83409 103.263 7.35309 105.272 7.35309C106.472 7.35309 107.673 7.52309 108.874 7.86109C109.964 8.16909 110.965 8.59809 111.876 9.14809C112.032 9.24209 112.085 9.44309 112.003 9.60509L110.577 12.4321C110.488 12.6091 110.269 12.6751 110.094 12.5801C109.242 12.1201 108.399 11.7591 107.564 11.4961Z" fill="#2B2B3A"/>
<path fill-rule="evenodd" clip-rule="evenodd" d="M135.236 12.9531C134.417 13.8491 134.007 15.0161 134.007 16.4571C134.007 17.8981 134.417 19.0661 135.236 19.9611C136.054 20.8561 137.119 21.3041 138.428 21.3041C139.716 21.3041 140.77 20.8561 141.589 19.9611C142.407 19.0661 142.816 17.8981 142.816 16.4571C142.816 15.0161 142.407 13.8491 141.589 12.9531C140.77 12.0581 139.716 11.6101 138.428 11.6101C137.119 11.6101 136.054 12.0581 135.236 12.9531ZM143.357 8.5321C144.787 9.2751 145.894 10.3231 146.68 11.6771C147.466 13.0301 147.859 14.6011 147.859 16.3911C147.859 18.1601 147.466 19.7261 146.68 21.0911C145.894 22.4551 144.787 23.5151 143.357 24.2671C141.926 25.0201 140.284 25.3971 138.428 25.3971C136.55 25.3971 134.897 25.0201 133.467 24.2671C132.037 23.5151 130.929 22.4551 130.143 21.0911C129.357 19.7261 128.965 18.1601 128.965 16.3911C128.965 14.6011 129.357 13.0301 130.143 11.6771C130.929 10.3231 132.037 9.2751 133.467 8.5321C134.897 7.7911 136.55 7.4191 138.428 7.4191C140.284 7.4191 141.926 7.7911 143.357 8.5321Z" fill="#2B2B3A"/>
<path fill-rule="evenodd" clip-rule="evenodd" d="M126.741 17.0635C126.152 16.3535 125.453 15.8185 124.645 15.4595C123.838 15.0985 122.811 14.7335 121.567 14.3615C120.432 14.0345 119.613 13.7395 119.111 13.4775C118.609 13.2145 118.358 12.8445 118.358 12.3645C118.358 11.9275 118.544 11.5995 118.915 11.3815C119.286 11.1635 119.777 11.0535 120.388 11.0535C121.131 11.0535 121.971 11.2015 122.91 11.4965C123.745 11.7585 124.588 12.1205 125.44 12.5805C125.615 12.6745 125.834 12.6095 125.923 12.4315L127.349 9.6055C127.431 9.4435 127.378 9.2425 127.222 9.1485C126.311 8.5975 125.31 8.1685 124.22 7.8615C123.019 7.5235 121.818 7.3535 120.618 7.3535C118.609 7.3535 116.95 7.8345 115.64 8.7945C114.331 9.7555 113.676 11.1085 113.676 12.8555C113.676 13.9905 113.959 14.9135 114.527 15.6225C115.095 16.3325 115.776 16.8615 116.574 17.2105C117.37 17.5595 118.369 17.9095 119.57 18.2585C120.705 18.5855 121.529 18.8915 122.042 19.1745C122.554 19.4595 122.811 19.8525 122.811 20.3545C122.811 20.8125 122.61 21.1565 122.206 21.3855C121.802 21.6155 121.262 21.7295 120.585 21.7295C119.602 21.7295 118.559 21.5395 117.458 21.1565C116.49 20.8215 115.602 20.3645 114.795 19.7855C114.666 19.6925 114.5 19.7035 114.383 19.7925C114.383 19.8155 114.384 19.8385 114.384 19.8635C114.384 21.1915 114.093 22.3985 113.533 23.4555C114.351 23.9955 115.27 24.4305 116.296 24.7585C117.627 25.1845 119.013 25.3975 120.454 25.3975C122.55 25.3975 124.269 24.9115 125.612 23.9395C126.954 22.9685 127.626 21.6095 127.626 19.8635C127.626 18.7065 127.331 17.7725 126.741 17.0635Z" fill="#2B2B3A"/>
</svg>