<?xml version="1.0" encoding="UTF-8" standalone="no"?>
<svg
   xmlns:dc="http://purl.org/dc/elements/1.1/"
   xmlns:cc="http://creativecommons.org/ns#"
   xmlns:rdf="http://www.w3.org/1999/02/22-rdf-syntax-ns#"
   xmlns:svg="http://www.w3.org/2000/svg"
   xmlns="http://www.w3.org/2000/svg"
   xmlns:sodipodi="http://sodipodi.sourceforge.net/DTD/sodipodi-0.dtd"
   xmlns:inkscape="http://www.inkscape.org/namespaces/inkscape"
   class="c6-24 c6-9 d-none d-sm-block c6-11 c6-26 d-none d-sm-block"
   width="120"
   height="23"
   viewBox="0 0 120 23"
   version="1.1"
   id="svg4"
   sodipodi:docname="c6-bank.svg"
   inkscape:version="0.92.4 (unknown)">
  <metadata
     id="metadata10">
    <rdf:RDF>
      <cc:Work
         rdf:about="">
        <dc:format>image/svg+xml</dc:format>
        <dc:type
           rdf:resource="http://purl.org/dc/dcmitype/StillImage" />
        <dc:title></dc:title>
      </cc:Work>
    </rdf:RDF>
  </metadata>
  <defs
     id="defs8" />
  <sodipodi:namedview
     pagecolor="#ffffff"
     bordercolor="#666666"
     borderopacity="1"
     objecttolerance="10"
     gridtolerance="10"
     guidetolerance="10"
     inkscape:pageopacity="0"
     inkscape:pageshadow="2"
     inkscape:window-width="1920"
     inkscape:window-height="1027"
     id="namedview6"
     showgrid="false"
     inkscape:zoom="2.425"
     inkscape:cx="60"
     inkscape:cy="11.5"
     inkscape:window-x="0"
     inkscape:window-y="0"
     inkscape:window-maximized="1"
     inkscape:current-layer="svg4" />
  <path
     d="M14.987 15.298c.775-.649 1.281-1.502 1.52-2.558h7.656c-.352 3.019-1.623 5.464-3.813 7.336-2.19 1.872-4.888 2.808-8.09 2.808-2.336 0-4.438-.49-6.308-1.472-1.87-.981-3.33-2.345-4.379-4.09C.524 15.574 0 13.614 0 11.441c0-2.174.524-4.134 1.573-5.88 1.049-1.746 2.508-3.11 4.379-4.09C7.822.49 9.924 0 12.259 0c3.152 0 5.813.903 7.983 2.71 2.17 1.806 3.45 4.173 3.843 7.102h-7.548c-.32-.967-.868-1.744-1.643-2.333a4.197 4.197 0 0 0-2.604-.883c-1.322 0-2.389.446-3.2 1.336-.811.89-1.217 2.06-1.217 3.51 0 1.439.408 2.604 1.225 3.494.816.89 1.88 1.336 3.192 1.336a4.075 4.075 0 0 0 2.697-.974zM36.703 7.42c2.352 0 4.271.682 5.759 2.045 1.487 1.364 2.231 3.127 2.231 5.29 0 2.471-.856 4.463-2.567 5.976C40.414 22.244 38.157 23 35.357 23c-2.767 0-5.017-.76-6.751-2.277-1.734-1.518-2.6-3.486-2.6-5.905 0-1.32.238-2.65.713-3.987.476-1.336 1.211-2.798 2.207-4.386l3.52-5.596 7.436-.001-4.164 6.604c.416-.022.744-.032.985-.032zm.342 9.32c.536-.522.804-1.199.804-2.03 0-.83-.268-1.513-.804-2.045-.536-.533-1.23-.8-2.084-.8-.853 0-1.548.267-2.083.8-.536.532-.805 1.214-.805 2.045s.269 1.508.805 2.03c.535.522 1.23.782 2.083.782.853 0 1.548-.26 2.084-.783zm21.282-6.174c2.642.748 4.31 2.984 4.31 5.874 0 1.597-.576 2.985-1.712 4.124-1.13 1.131-2.546 1.705-4.211 1.705H49.51a.099.099 0 0 1-.1-.098V.945c0-.054.044-.097.1-.097h6.345c1.542 0 2.815.493 3.781 1.466.993.935 1.499 2.184 1.499 3.706 0 2.042-1.059 3.727-2.81 4.546zm2.048 9.367c1.013-.987 1.505-2.157 1.505-3.578 0-1.58-.505-2.873-1.502-3.844-1.032-1.005-2.303-1.493-3.885-1.493h-6.216v10.375h6.491c1.427 0 2.64-.491 3.607-1.46zM50.277 1.695v8.673h5.633c1.317 0 2.398-.402 3.211-1.194.834-.813 1.257-1.855 1.257-3.098 0-2.58-1.837-4.38-4.468-4.38h-5.633zm69.704 20.42a.092.092 0 0 1 .019.056.099.099 0 0 1-.1.098h-.756a.1.1 0 0 1-.082-.042L110.988 11.2l-3.565 4.01v6.961a.099.099 0 0 1-.1.098h-.6a.099.099 0 0 1-.1-.098V.945c0-.054.044-.097.1-.097h.6c.055 0 .1.043.1.097V14.03L119.003.882a.102.102 0 0 1 .077-.034h.794c.055 0 .1.043.1.097a.1.1 0 0 1-.024.063l-8.424 9.566 8.455 11.541zM101.521.848c.055 0 .1.043.1.097V22.17a.099.099 0 0 1-.1.098h-.276a.1.1 0 0 1-.081-.04L86.63 2.587V22.17a.099.099 0 0 1-.1.098h-.613a.099.099 0 0 1-.1-.098V.945c0-.054.045-.097.1-.097h.388c.034 0 .063.015.081.04l14.421 19.49V.944c0-.054.045-.097.1-.097h.613zm-19.396 21.29c.004.01.007.021.007.033a.099.099 0 0 1-.1.098h-.636a.1.1 0 0 1-.094-.065l-2.544-6.563h-10.37l-2.544 6.565a.1.1 0 0 1-.094.063h-.636a.099.099 0 0 1-.1-.098c0-.012.002-.024.006-.035L73.286.91a.1.1 0 0 1 .094-.062h.387a.1.1 0 0 1 .094.064l8.264 21.225zm-13.644-7.12h9.776L73.37 2.542l-4.888 12.474z"
     id="path2" />
</svg>
