<svg xmlns="http://www.w3.org/2000/svg" id="Layer_1" viewBox="0 0 90.699997 20.600001" width="90.7" height="20.6"><style id="style3">.st0{fill:#134c9c}.st1{fill:#fff}.st2{fill:#070707}</style><g id="g5" transform="translate(-5.4 -2.1)"><path class="st0" d="M21.1 2.1H7.8c-1.3 0-2.4 1.1-2.4 2.4v15.8c0 1.3 1.1 2.4 2.4 2.4H21c1.3 0 2.4-1.1 2.4-2.4V4.5c.1-1.3-1-2.4-2.3-2.4zm-2.6 15.2c-.5.7-.1 1.2-.1 1.4 0 .5-.4.9-.9.9-.3 0-.6-.1-.8-.4-.2.2-.4.4-.8.4s-.6-.1-.8-.4c-.2.2-.4.4-.8.4-.3 0-.6-.1-.8-.4-.2.2-.4.4-.8.4s-.6-.1-.8-.4c-.2.2-.4.4-.8.4-.5 0-.9-.4-.9-.9 0-.2.4-.7-.1-1.4C9 15.9 8.4 14 8.4 11.9c0-1.4.4-2.8.9-3.8.1-.2.2-.4.4-.6.3-.1.3-.2.4-.2.4-.4.9-.6 1.4-.6h-.4c-.2 0-.4 0-.6-.1-.3-.1-.6-.1-.9-.4-.1-.1-.2-.2-.3-.4-.1-.2-.2-.5-.2-.8 0-.3-.1-.6 0-.9 0 0 .4.3.4.4.2.2.4.3.5.4.4.2.9.3 1.3.5.2.1.5.1.7.2.2 0 .4.1.5.1.3.1.6.1 1 .2.1.1.3.1.4.2.1.1.2.2.2.4s.1.4.1.6c0 .1.1.3.1.4 0-.1 0-.3.1-.4 0-.2.1-.4.1-.6 0-.1.1-.3.2-.4.1-.1.3-.1.4-.2.3-.1.6-.2.9-.2.2 0 .4-.1.5-.1.2-.1.5-.1.7-.2.4-.1.9-.3 1.3-.5.2-.1.4-.2.5-.3.1 0 .4-.3.4-.4.1.3 0 .6 0 .9 0 .3-.1.5-.2.8-.1.1-.2.3-.3.4-.3.2-.6.3-.9.4-.2 0-.4 0-.6.1H17c.5.1 1 .3 1.4.6l.2.2c.2.2.3.4.4.6.6 1 .9 2.4.9 3.8.4 2-.3 3.9-1.4 5.3z" id="path7" fill="#134c9c"/><path class="st0" d="M19.6 9.6c-.2 1.2-1.2 2-2.5 2-1.4 0-2.5-1.1-2.5-2.5 0-1.3 1-2.4 2.2-2.5h-.6c-.4 0-.9.1-1.3.3-.1.1-.2.1-.3.3-.1.1-.2.2-.2.3 0-.1-.1-.2-.2-.3l-.3-.3c-.4-.2-.9-.2-1.3-.3H12c1.3.1 2.2 1.2 2.2 2.5 0 1.4-1.1 2.5-2.5 2.5-1.2 0-2.2-.9-2.5-2 0 .4-.1.9-.1 1.4 0 3.6 3.5 7.1 5.1 7.1h.2c1.6-.1 5.1-3.6 5.1-7.2.1-.4.1-.8.1-1.3zm-5.2 3.3c-.1 0-.9-1.5-.9-1.6 0-.1.7-.6.9-.6.2 0 .9.5.9.6.1.1-.8 1.6-.9 1.6z" id="path9" fill="#134c9c"/><path class="st0" d="M10.9 10c0 .4.4.8.8.8s.8-.4.8-.8-.4-.8-.8-.8-.8.3-.8.8" id="path11" fill="#134c9c"/><path class="st0" d="M17.3 9.2c-.4 0-.8.4-.8.8s.4.8.8.8.8-.4.8-.8c0-.5-.3-.8-.8-.8" id="path13" fill="#134c9c"/><g id="g15"><g id="g17"><g id="g19"><path class="st1" d="M27.6 14.4V3.7h5.8v1.7h-3.8v2.8h3.6v1.7h-3.6v2.8h3.9v1.7h-5.9z" id="path21" fill="#fff"/><path class="st1" d="M37.3 14.6c-1.1 0-2.1-.5-2.7-1.1l1.1-1.1c.3.3.9.6 1.6.6.8 0 1.2-.4 1.2-.8 0-1.5-3.7-.7-3.7-3.5 0-1.1 1-2.3 2.9-2.3 1.1 0 2 .4 2.6 1.1l-1 1.2c-.4-.4-.9-.6-1.5-.6-.7 0-1.1.4-1.1.8 0 1.2 3.7.6 3.7 3.5 0 1-1 2.2-3.1 2.2z" id="path23" fill="#fff"/><path class="st1" d="M45 14.5c-1.5 0-2.4-1-2.4-2.1V8.3h-1.4V6.7h1.4V4.5h1.9v2.2h1.8v1.5h-1.8v3.9c0 .6.3.9 1 .9.3 0 .6-.1.9-.1v1.5c-.4 0-.9.1-1.4.1z" id="path25" fill="#fff"/><path class="st1" d="M51.2 8.3c-.9.2-1.4 1-1.4 2.3v3.8h-1.9V6.7h1.8v1.2c.4-.8 1.2-1.3 2.7-1.3v1.7c-.4-.1-.9-.1-1.2 0z" id="path27" fill="#fff"/><path class="st1" d="M58.1 14.4v-1.2c-.4.8-1.2 1.3-2.3 1.3-1.4 0-2.5-1-2.5-2.2 0-1.3 1.1-2.5 3.6-2.5h1.2v-.6C58 8.6 57.4 8 56.5 8c-.7 0-1.3.3-1.7.6l-1.1-1.1c.7-.6 1.7-1.1 3-1.1 2.1 0 3.3 1.2 3.3 2.8v5l-1.9.2zm0-3.4h-1.3c-1.1 0-1.6.6-1.6 1.1 0 .5.4 1 1.2 1 1 0 1.7-.7 1.7-1.9V11z" id="path29" fill="#fff"/><path class="st1" d="M65.2 14.5c-1.5 0-2.4-1-2.4-2.1V8.3h-1.4V6.7h1.4V4.5h1.9v2.2h1.8v1.5h-1.8v3.9c0 .6.3.9 1 .9.3 0 .6-.1.9-.1v1.5c-.4 0-.8.1-1.4.1z" id="path31" fill="#fff"/><path class="st1" d="M69.5 11.1c.2 1.2.9 2 2.1 2 .6 0 1.2-.2 1.5-.6l1.1 1.1c-.8.7-1.6 1-2.7 1-2.3 0-4-1.6-4-4s1.5-4 3.6-4c2 0 3.5 1.4 3.5 4.1v.4h-5.1zM71.2 8c-.8 0-1.5.7-1.6 1.7h3.2c-.2-1-.7-1.7-1.6-1.7zm0-2h-1.1l1-2.5h2.1l-2 2.5z" id="path33" fill="#fff"/><path class="st1" d="M79.2 17.2c-1.5 0-2.5-.5-3-1.1l1.1-1.1c.4.4 1 .7 1.9.7 1.3 0 2.2-.8 2.2-2v-.6c-.4.7-1.3 1.2-2.2 1.2-1.8 0-3.4-1.5-3.4-3.9 0-2.3 1.6-3.9 3.4-3.9 1 0 2 .6 2.3 1.3V6.7h1.8v7c-.1 1.9-1.6 3.5-4.1 3.5zm.4-9.1c-1 0-1.8.9-1.8 2.3s.8 2.3 1.8 2.3 1.8-.9 1.8-2.3-.8-2.3-1.8-2.3z" id="path35" fill="#fff"/><path class="st1" d="M85.6 5.5V3.7h1.9v1.8h-1.9zm0 8.9V6.7h1.9v7.7h-1.9z" id="path37" fill="#fff"/><path class="st1" d="M94.2 14.4v-1.2c-.4.8-1.2 1.3-2.3 1.3-1.4 0-2.5-1-2.5-2.2 0-1.3 1.1-2.5 3.6-2.5h1.2v-.6c-.1-.6-.7-1.2-1.6-1.2-.7 0-1.3.3-1.7.6l-1.1-1.1c.7-.6 1.7-1.1 3-1.1 2.1 0 3.3 1.2 3.3 2.8v5l-1.9.2zm-.1-3.4h-1.3c-1.1 0-1.6.6-1.6 1.1 0 .5.4 1 1.2 1 1 0 1.7-.7 1.7-1.9V11z" id="path39" fill="#fff"/></g><g id="g41"><path class="st0" d="M27.6 14.4V3.7h5.8v1.7h-3.8v2.8h3.6v1.7h-3.6v2.8h3.9v1.7h-5.9z" id="path43" fill="#134c9c"/><path class="st0" d="M37.3 14.6c-1.1 0-2.1-.5-2.7-1.1l1.1-1.1c.3.3.9.6 1.6.6.8 0 1.2-.4 1.2-.8 0-1.5-3.7-.7-3.7-3.5 0-1.1 1-2.3 2.9-2.3 1.1 0 2 .4 2.6 1.1l-1 1.2c-.4-.4-.9-.6-1.5-.6-.7 0-1.1.4-1.1.8 0 1.2 3.7.6 3.7 3.5 0 1-1 2.2-3.1 2.2z" id="path45" fill="#134c9c"/><path class="st0" d="M45 14.5c-1.5 0-2.4-1-2.4-2.1V8.3h-1.4V6.7h1.4V4.5h1.9v2.2h1.8v1.5h-1.8v3.9c0 .6.3.9 1 .9.3 0 .6-.1.9-.1v1.5c-.4 0-.9.1-1.4.1z" id="path47" fill="#134c9c"/><path class="st0" d="M51.2 8.3c-.9.2-1.4 1-1.4 2.3v3.8h-1.9V6.7h1.8v1.2c.4-.8 1.2-1.3 2.7-1.3v1.7c-.4-.1-.9-.1-1.2 0z" id="path49" fill="#134c9c"/><path class="st0" d="M58.1 14.4v-1.2c-.4.8-1.2 1.3-2.3 1.3-1.4 0-2.5-1-2.5-2.2 0-1.3 1.1-2.5 3.6-2.5h1.2v-.6C58 8.6 57.4 8 56.5 8c-.7 0-1.3.3-1.7.6l-1.1-1.1c.7-.6 1.7-1.1 3-1.1 2.1 0 3.3 1.2 3.3 2.8v5l-1.9.2zm0-3.4h-1.3c-1.1 0-1.6.6-1.6 1.1 0 .5.4 1 1.2 1 1 0 1.7-.7 1.7-1.9V11z" id="path51" fill="#134c9c"/><path class="st0" d="M65.2 14.5c-1.5 0-2.4-1-2.4-2.1V8.3h-1.4V6.7h1.4V4.5h1.9v2.2h1.8v1.5h-1.8v3.9c0 .6.3.9 1 .9.3 0 .6-.1.9-.1v1.5c-.4 0-.8.1-1.4.1z" id="path53" fill="#134c9c"/><path class="st0" d="M69.5 11.1c.2 1.2.9 2 2.1 2 .6 0 1.2-.2 1.5-.6l1.1 1.1c-.8.7-1.6 1-2.7 1-2.3 0-4-1.6-4-4s1.5-4 3.6-4c2 0 3.5 1.4 3.5 4.1v.4h-5.1zM71.2 8c-.8 0-1.5.7-1.6 1.7h3.2c-.2-1-.7-1.7-1.6-1.7zm0-2h-1.1l1-2.5h2.1l-2 2.5z" id="path55" fill="#134c9c"/><path class="st0" d="M79.2 17.2c-1.5 0-2.5-.5-3-1.1l1.1-1.1c.4.4 1 .7 1.9.7 1.3 0 2.2-.8 2.2-2v-.6c-.4.7-1.3 1.2-2.2 1.2-1.8 0-3.4-1.5-3.4-3.9 0-2.3 1.6-3.9 3.4-3.9 1 0 2 .6 2.3 1.3V6.7h1.8v7c-.1 1.9-1.6 3.5-4.1 3.5zm.4-9.1c-1 0-1.8.9-1.8 2.3s.8 2.3 1.8 2.3 1.8-.9 1.8-2.3-.8-2.3-1.8-2.3z" id="path57" fill="#134c9c"/><path class="st0" d="M85.6 5.5V3.7h1.9v1.8h-1.9zm0 8.9V6.7h1.9v7.7h-1.9z" id="path59" fill="#134c9c"/><path class="st0" d="M94.2 14.4v-1.2c-.4.8-1.2 1.3-2.3 1.3-1.4 0-2.5-1-2.5-2.2 0-1.3 1.1-2.5 3.6-2.5h1.2v-.6c-.1-.6-.7-1.2-1.6-1.2-.7 0-1.3.3-1.7.6l-1.1-1.1c.7-.6 1.7-1.1 3-1.1 2.1 0 3.3 1.2 3.3 2.8v5l-1.9.2zm-.1-3.4h-1.3c-1.1 0-1.6.6-1.6 1.1 0 .5.4 1 1.2 1 1 0 1.7-.7 1.7-1.9V11z" id="path61" fill="#134c9c"/></g></g><g id="g63"><path class="st2" d="M29.4 21.2c-1.1 0-1.8-.8-1.8-2s.7-2 1.8-2c.5 0 .9.2 1.2.5l-.3.3c-.3-.2-.5-.4-.9-.4-.8 0-1.3.6-1.3 1.6s.6 1.6 1.3 1.6c.4 0 .6-.1.9-.4l.3.3c-.3.3-.7.5-1.2.5z" id="path65" fill="#070707"/><path class="st2" d="M34.6 21.2c-1 0-1.7-.8-1.7-2s.7-2 1.7-2 1.7.8 1.7 2c.1 1.2-.7 2-1.7 2zm0-3.6c-.7 0-1.2.6-1.2 1.6s.6 1.6 1.2 1.6c.7 0 1.2-.6 1.2-1.6.1-1-.5-1.6-1.2-1.6z" id="path67" fill="#070707"/><path class="st2" d="M41.1 21.1l-1.7-3.3v3.3H39v-3.9h.7l1.7 3.3v-3.3h.5v3.9h-.8z" id="path69" fill="#070707"/><path class="st2" d="M46.3 21.2c-1.1 0-1.8-.8-1.8-2s.7-2 1.8-2c.5 0 .9.2 1.2.5l-.3.3c-.3-.2-.5-.4-.9-.4-.8 0-1.3.6-1.3 1.6s.6 1.6 1.3 1.6c.4 0 .6-.1.9-.4l.3.3c-.3.3-.7.5-1.2.5z" id="path71" fill="#070707"/><path class="st2" d="M51.4 21.2c-.7 0-1.4-.4-1.4-1.3v-2.7h.5v2.7c0 .6.4.9.9.9s.9-.3.9-.9v-2.7h.5v2.7c0 .9-.7 1.3-1.4 1.3z" id="path73" fill="#070707"/><path class="st2" d="M57.8 21.1l-.3-1.3c-.1-.3-.2-.4-.5-.4h-.9v1.8h-.5v-3.9H57c.8 0 1.2.4 1.2 1 0 .4-.3.8-.7.9.3 0 .5.3.6.6l.3 1.4c-.1-.1-.6-.1-.6-.1zm-.8-3.5h-.8v1.3h.7c.5 0 .8-.3.8-.7 0-.3-.2-.6-.7-.6z" id="path75" fill="#070707"/><path class="st2" d="M61.8 21.2c-.6 0-1-.3-1.2-.5l.3-.3c.2.2.6.4.9.4.5 0 .8-.3.8-.7 0-.3-.3-.5-.6-.7l-.6-.2c-.4-.1-.8-.4-.8-1 0-.5.4-1.1 1.3-1.1.5 0 .9.2 1.2.5l-.3.3c-.2-.2-.5-.4-.9-.4-.5 0-.8.3-.8.6s.2.5.5.6l.6.2c.5.1.9.4.9 1.1 0 .7-.5 1.2-1.3 1.2z" id="path77" fill="#070707"/><path class="st2" d="M67.2 21.2c-1 0-1.7-.8-1.7-2s.7-2 1.7-2 1.7.8 1.7 2c.1 1.2-.7 2-1.7 2zm0-3.6c-.7 0-1.2.6-1.2 1.6s.6 1.6 1.2 1.6c.7 0 1.2-.6 1.2-1.6.1-1-.5-1.6-1.2-1.6z" id="path79" fill="#070707"/><path class="st2" d="M72.6 21.2c-.6 0-1-.3-1.2-.5l.3-.3c.2.2.6.4.9.4.5 0 .8-.3.8-.7 0-.3-.3-.5-.6-.7l-.5-.2c-.4-.1-.8-.4-.8-1 0-.5.4-1.1 1.3-1.1.5 0 .9.2 1.2.5l-.3.3c-.2-.2-.5-.4-.9-.4-.5 0-.8.3-.8.6s.2.5.5.6l.6.2c.5.1.9.4.9 1.1-.1.7-.7 1.2-1.4 1.2z" id="path81" fill="#070707"/></g></g></g></svg>