<svg width="1032" height="192" viewBox="0 0 1032 192" xmlns="http://www.w3.org/2000/svg" xmlns:xlink="http://www.w3.org/1999/xlink" class="nuh5g0-1 KLmjs"><defs><linearGradient x1="50%" y1="0%" x2="50%" y2="100%" id="1251784480_a"><stop stop-color="#F3F2F2" offset="0%"></stop><stop stop-color="#FFF" stop-opacity="0" offset="100%"></stop></linearGradient><linearGradient x1="50%" y1=".363%" x2="50%" y2="100%" id="1251784480_b"><stop stop-color="#D9D6D3" offset="0%"></stop><stop stop-color="#FFF" stop-opacity="0" offset="100%"></stop></linearGradient><path id="1251784480_c" d="M0 0h192l32 76.966-33.175 82.704L0 160z"></path><path id="1251784480_e" d="M0 0h192l32 76.966-33.175 82.704L0 160z"></path></defs><g fill="none" fill-rule="evenodd"><g fill-rule="nonzero"><path d="M528 84.087c-1.711 0-3.1-1.763-3.1-3.936V50.249c0-.794-.247-1.556-.69-2.118l-23.87-30.315c-1.842-2.339-4.829-2.339-6.67 0L469.799 48.13c-.443.562-.692 1.324-.692 2.118V80.15c0 2.173-1.387 3.936-3.099 3.936-3.667 0-5.054-1.763-5.054-3.936V17.174c0-2.231-1.04-4.25-2.65-5.14L444.408 4.33a4.83 4.83 0 0 0-1.462-.53 18.289 18.289 0 0 0-6.487-1.2c-2.255 0-4.43.423-6.486 1.199-.488.091-.98.263-1.463.531l-13.897 7.702c-1.609.892-2.649 2.91-2.649 5.14v15.75c0 2.173-1.387 3.935-3.099 3.935h-17.5c-1.988-.19-3.272.189-4.262 1.253l-9.557 10.25c-.94 1.008-1.483 2.492-1.483 4.054v12.848c0 1.63-1.04 2.951-2.325 2.951h-4.228c-.75 0-1.454-.458-1.89-1.232l-21.005-37.244c-1.455-2.58-3.8-4.11-6.299-4.11h-35.325v37.667l-33.482 2.88c-1.711 0-3.099-1.762-3.099-3.936V18.528c0-2.068-.964-3.94-2.457-4.766l-12.887-7.143a4.466 4.466 0 0 0-1.356-.493 16.976 16.976 0 0 0-6.015-1.112c-2.09 0-4.11.393-6.015 1.112a4.477 4.477 0 0 0-1.357.493l-12.887 7.143c-1.18.722-2.377 7.78-2.377 6.325l-.001-13.93c0-3.398-2.169-6.152-4.844-6.152h-20.067c-2.674 0-4.843 2.754-4.843 6.151v4.281c-5.217 0-7.387 2.754-7.387 6.152v22.447c0 2.174-1.387 3.936-3.099 3.936h-33.763c-1.712 0-3.1-1.762-3.1-3.936V21.662c0-3.532-2.255-6.395-5.035-6.395h-2.973V6.92c0-2.717-1.735-4.92-3.874-4.92h-19.789c-3.925 0-5.659 2.203-5.659 4.92v8.347h-2.973c-2.781 0-5.036 2.863-5.036 6.395v72.964c0 2.173-1.387 3.935-3.099 3.935h-12.31c-1.71 0-3.099-1.762-3.099-3.935V46.545c0-2.174-1.387-3.936-3.099-3.936-2.486 0-3.874-1.762-3.874-3.936V7.187c0-2.174-1.387-3.936-3.099-3.936H37.171c-1.711 0-3.099 1.762-3.099 3.936v31.486c0 2.174-1.388 3.936-3.099 3.936-2.486 0-3.874 1.762-3.874 3.936v48.08c0 2.174-1.388 3.936-3.099 3.936V138h504V84.087z" fill="url(#1251784480_a)" transform="matrix(-1 0 0 1 1008 30)"></path><path d="M960 84.087c-1.711 0-3.1-1.763-3.1-3.936V50.249c0-.794-.247-1.556-.69-2.118l-23.87-30.315c-1.842-2.339-4.829-2.339-6.67 0L901.799 48.13c-.443.562-.692 1.324-.692 2.118V80.15c0 2.173-1.387 3.936-3.099 3.936-3.667 0-5.054-1.763-5.054-3.936V17.174c0-2.231-1.04-4.25-2.65-5.14L876.408 4.33a4.83 4.83 0 0 0-1.462-.53 18.289 18.289 0 0 0-6.487-1.2c-2.255 0-4.43.423-6.486 1.199-.488.091-.98.263-1.463.531l-13.897 7.702c-1.609.892-2.649 2.91-2.649 5.14v15.75c0 2.173-1.387 3.935-3.099 3.935h-17.5c-1.988-.19-3.272.189-4.262 1.253l-9.557 10.25c-.94 1.008-1.483 2.492-1.483 4.054v12.848c0 1.63-1.04 2.951-2.325 2.951h-4.228c-.75 0-1.454-.458-1.89-1.232l-21.005-37.244c-1.455-2.58-3.8-4.11-6.299-4.11h-35.325v37.667l-33.482 2.88c-1.711 0-3.099-1.762-3.099-3.936V18.528c0-2.068-.964-3.94-2.457-4.766l-12.887-7.143a4.466 4.466 0 0 0-1.356-.493 16.976 16.976 0 0 0-6.015-1.112c-2.09 0-4.11.393-6.015 1.112a4.477 4.477 0 0 0-1.357.493l-12.887 7.143c-1.18.722-2.377 7.78-2.377 6.325l-.001-13.93c0-3.398-2.169-6.152-4.844-6.152h-20.067c-2.674 0-4.843 2.754-4.843 6.151v4.281c-5.217 0-7.387 2.754-7.387 6.152v22.447c0 2.174-1.387 3.936-3.099 3.936h-33.763c-1.712 0-3.1-1.762-3.1-3.936V21.662c0-3.532-2.255-6.395-5.035-6.395h-2.973V6.92c0-2.717-1.735-4.92-3.874-4.92h-19.789c-3.925 0-5.659 2.203-5.659 4.92v8.347h-2.973c-2.781 0-5.036 2.863-5.036 6.395v72.964c0 2.173-1.387 3.935-3.099 3.935h-12.31c-1.71 0-3.099-1.762-3.099-3.935V46.545c0-2.174-1.387-3.936-3.099-3.936-2.486 0-3.874-1.762-3.874-3.936V7.187c0-2.174-1.387-3.936-3.099-3.936h-34.865c-1.711 0-3.099 1.762-3.099 3.936v31.486c0 2.174-1.388 3.936-3.099 3.936-2.486 0-3.874 1.762-3.874 3.936v48.08c0 2.174-1.388 3.936-3.099 3.936V138h504V84.087z" fill="url(#1251784480_a)" transform="matrix(-1 0 0 1 1008 30)"></path><path d="M466.617 66.998h-27.821c-3.995 0-7.235 3.346-7.235 7.476v5.202h-3.798c-3.996 0-7.234 3.346-7.234 7.476v31.26c0 2.45-1.922 4.436-4.292 4.436h-4.973c-2.37 0-4.292-1.986-4.292-4.435V61.97c0-2.514-1.44-4.788-3.67-5.793l-19.248-8.679a7.714 7.714 0 0 0-2.025-.599 30.534 30.534 0 0 0-17.968 0 7.733 7.733 0 0 0-2.026.6l-19.247 8.678c-2.229 1.005-3.67 3.28-3.67 5.793v44.795c0 2.45-1.922 4.436-4.292 4.436h-22.093c-2.753-.216-4.532.213-5.904 1.411l-13.238 11.551a6.067 6.067 0 0 0-2.053 4.571v18.91c0 2.45-1.922 4.436-4.292 4.436H186.285c-2.37 0-4.293-1.986-4.293-4.435V37.268c0-1.725-.988-3.285-2.519-3.975l-13.206-5.956c-3.344-1.011-5.412-1.337-7.555-1.337s-4.211.326-6.165.927c-.31.047-5.176 2.169-14.598 6.366-1.53.69-2.519 2.251-2.519 3.975v99.858c0 1.837-1.44 3.327-3.219 3.327H97.879c-1.779 0-3.22-1.49-3.22-3.327v-69.15c0-2.848-2.235-5.157-4.99-5.157l-2.621-3.59c0-2.848-2.235-5.157-4.992-5.157H51.925c-2.96 0-5.194 2.309-5.194 5.158v32.4c0 1.232-1.226 2.057-2.317 1.56l-13.413-6.05c-3.362-1.017-5.44-1.346-7.595-1.346-2.155 0-4.234.33-6.198.933-.312.047-5.204 2.18-14.677 6.401C.994 93.821 0 95.39 0 97.123V154h479.706L480 74.474c0-4.13-3.238-7.476-7.234-7.476h-6.149z" fill="url(#1251784480_b)" transform="translate(528 30)"></path><path d="M970.617 66.998h-27.821c-3.995 0-7.235 3.346-7.235 7.476v5.202h-3.798c-3.996 0-7.234 3.346-7.234 7.476v31.26c0 2.45-1.922 4.436-4.292 4.436h-4.973c-2.37 0-4.292-1.986-4.292-4.435V61.97c0-2.514-1.44-4.788-3.67-5.793l-19.248-8.679a7.714 7.714 0 0 0-2.025-.599 30.534 30.534 0 0 0-17.968 0 7.733 7.733 0 0 0-2.026.6l-19.247 8.678c-2.229 1.005-3.67 3.28-3.67 5.793v44.795c0 2.45-1.922 4.436-4.292 4.436h-22.093c-2.753-.216-4.532.213-5.904 1.411l-13.238 11.551a6.067 6.067 0 0 0-2.053 4.571v18.91c0 2.45-1.922 4.436-4.292 4.436H690.285c-2.37 0-4.293-1.986-4.293-4.435V37.268c0-1.725-.988-3.285-2.519-3.975l-13.206-5.956c-3.344-1.011-5.412-1.337-7.555-1.337s-4.211.326-6.165.927c-.31.047-5.176 2.169-14.598 6.366-1.53.69-2.519 2.251-2.519 3.975v99.858c0 1.837-1.44 3.327-3.219 3.327h-34.332c-1.779 0-3.22-1.49-3.22-3.327v-69.15c0-2.848-2.235-5.157-4.99-5.157l-2.621-3.59c0-2.848-2.235-5.157-4.992-5.157h-30.131c-2.96 0-5.194 2.309-5.194 5.158v32.4c0 1.232-1.226 2.057-2.317 1.56l-13.413-6.05c-3.362-1.017-5.44-1.346-7.595-1.346-2.155 0-4.234.33-6.198.933-.312.047-5.204 2.18-14.677 6.401-1.537.693-2.531 2.262-2.531 3.995V154h479.706L984 74.474c0-4.13-3.238-7.476-7.234-7.476h-6.149z" fill="url(#1251784480_b)" transform="translate(-480 30)"></path></g><g transform="matrix(-1 0 0 1 916 8)"><g transform="translate(176)"><mask id="1251784480_d" fill="#fff"><use xlink:href="#1251784480_c"></use></mask><path fill="#7AC1FC" mask="url(#1251784480_d)" d="M194.633 10.331h4.05L4.254 162.712H.203zM227.038 10.331h4.05L36.659 162.712h-4.05zM259.443 10.331h4.05L69.064 162.712h-4.05zM291.848 10.331h4.05l-194.43 152.381h-4.05zM324.253 10.331h4.05l-194.43 152.381h-4.05zM356.658 10.331h4.05l-194.43 152.381h-4.05z"></path></g><g transform="matrix(-1 0 0 1 624 0)"><mask id="1251784480_f" fill="#fff"><use xlink:href="#1251784480_e"></use></mask><path fill="#7AC1FC" mask="url(#1251784480_f)" d="M194.633 10.331h4.05L4.254 162.712H.203zM227.038 10.331h4.05L36.659 162.712h-4.05zM259.443 10.331h4.05L69.064 162.712h-4.05zM291.848 10.331h4.05l-194.43 152.381h-4.05zM324.253 10.331h4.05l-194.43 152.381h-4.05zM356.658 10.331h4.05l-194.43 152.381h-4.05z"></path></g><path fill="#3C4ACE" d="M384 23h32v8h-32z"></path><path d="M422.73 0h7.41a4 4 0 0 1 3.724 5.458L364 184h-16L419.005 2.542A4 4 0 0 1 422.73 0z" fill="#3C4ACE"></path><rect fill="#6796F4" y="160" width="800" height="8" rx="4"></rect><path d="M369.86 0h7.41a4 4 0 0 1 3.725 2.542L452 184h-16L366.136 5.458A4 4 0 0 1 369.86 0z" fill="#5063F0"></path></g><g transform="translate(740 28)"><path d="M193.5 16v148H5.5a4 4 0 0 1-4-4V8a8 8 0 0 1 8-8h21.397a8 8 0 0 1 4.617 1.466C49.228 11.156 64.556 16 81.5 16c26.667 0 37.333-16 64-16 17.778 0 33.778 5.333 48 16z" fill="#72CCAE"></path><path d="M37.42 73.752C50.251 81.917 64.444 86 80 86c26.667 0 37.333-16 64-16 17.778 0 34.278 5.333 49.5 16v4c-15.222-10.667-31.722-16-49.5-16-26.667 0-37.333 16-64 16-15.555 0-29.748-4.083-42.58-12.248A24 24 0 0 0 24.534 74H0v-4h24.535a24 24 0 0 1 12.884 3.752zM37.42 37.752C50.251 45.917 64.444 50 80 50c26.667 0 37.333-16 64-16 17.778 0 34.278 5.333 49.5 16v4c-15.222-10.667-31.722-16-49.5-16-26.667 0-37.333 16-64 16-15.555 0-29.748-4.083-42.58-12.248A24 24 0 0 0 24.534 38H0v-4h24.535a24 24 0 0 1 12.884 3.752z" fill="#98EDCC"></path><path d="M37.42 33.752C50.251 41.917 64.444 46 80 46c26.667 0 37.333-16 64-16 17.778 0 34.278 5.333 49.5 16v4c-15.222-10.667-31.722-16-49.5-16-26.667 0-37.333 16-64 16-15.555 0-29.748-4.083-42.58-12.248A24 24 0 0 0 24.534 34H0v-4h24.535a24 24 0 0 1 12.884 3.752zM37.42 69.752C50.251 77.917 64.444 82 80 82c26.667 0 37.333-16 64-16 17.778 0 34.278 5.333 49.5 16v4c-15.222-10.667-31.722-16-49.5-16-26.667 0-37.333 16-64 16-15.555 0-29.748-4.083-42.58-12.248A24 24 0 0 0 24.534 70H0v-4h24.535a24 24 0 0 1 12.884 3.752z" fill="#3AB9A0"></path><path d="M4 0h24a4 4 0 0 1 4 4v160H0V4a4 4 0 0 1 4-4z" fill="#55A595"></path><rect fill="#417F75" x="8" y="8" width="16" height="4" rx="2"></rect><rect fill="#417F75" x="8" y="20" width="16" height="4" rx="2"></rect><rect fill="#417F75" x="8" y="32" width="16" height="4" rx="2"></rect><rect fill="#417F75" x="8" y="44" width="16" height="4" rx="2"></rect><rect fill="#417F75" x="8" y="56" width="16" height="4" rx="2"></rect><rect fill="#417F75" x="8" y="68" width="16" height="4" rx="2"></rect><rect fill="#417F75" x="8" y="80" width="16" height="4" rx="2"></rect><rect fill="#417F75" x="8" y="92" width="16" height="4" rx="2"></rect><rect fill="#417F75" x="8" y="104" width="16" height="4" rx="2"></rect><rect fill="#417F75" x="8" y="116" width="16" height="4" rx="2"></rect><rect fill="#417F75" x="8" y="128" width="16" height="4" rx="2"></rect></g><g transform="translate(792 88)"><path d="M4 0h80a4 4 0 0 1 4 4v100H0V4a4 4 0 0 1 4-4z" fill="#5063F0"></path><path d="M60 0h24a4 4 0 0 1 4 4v100H56V4a4 4 0 0 1 4-4z" fill="#6796F4"></path><rect fill="#3C4ACE" x="8" y="32" width="16" height="8" rx="2"></rect><rect fill="#3C4ACE" x="32" y="32" width="16" height="8" rx="2"></rect><rect fill="#3C4ACE" x="8" y="16" width="16" height="8" rx="2"></rect><rect fill="#3C4ACE" x="32" y="16" width="16" height="8" rx="2"></rect><rect fill="#7AC1FC" x="64" y="16" width="8" height="8" rx="2"></rect><rect fill="#7AC1FC" x="64" y="48" width="8" height="8" rx="2"></rect><rect fill="#7AC1FC" x="64" y="32" width="8" height="8" rx="2"></rect><rect fill="#7AC1FC" x="64" y="64" width="8" height="8" rx="2"></rect><rect fill="#3C4ACE" x="8" y="48" width="16" height="8" rx="2"></rect><rect fill="#3C4ACE" x="32" y="48" width="16" height="8" rx="2"></rect><rect fill="#3C4ACE" x="8" y="64" width="16" height="8" rx="2"></rect><rect fill="#3C4ACE" x="32" y="64" width="16" height="8" rx="2"></rect></g><g transform="translate(860 120)"><path d="M4 0h112a4 4 0 0 1 4 4v68H0V4a4 4 0 0 1 4-4z" fill="#EDA4E7"></path><path d="M4 0h56a4 4 0 0 1 4 4v68H0V4a4 4 0 0 1 4-4z" fill="#C66DC4"></path><rect fill="#AD4EAD" x="32" y="24" width="24" height="16" rx="2"></rect><rect fill="#AD4EAD" x="8" y="56" width="20" height="16" rx="2"></rect><rect fill="#FFCAFE" x="72" y="24" width="8" height="8" rx="2"></rect><rect fill="#FFCAFE" x="72" y="40" width="8" height="8" rx="2"></rect><rect fill="#FFCAFE" x="88" y="24" width="8" height="8" rx="2"></rect><rect fill="#FFCAFE" x="88" y="40" width="8" height="8" rx="2"></rect><rect fill="#FFCAFE" x="104" y="24" width="8" height="8" rx="2"></rect><rect fill="#FFCAFE" x="104" y="40" width="8" height="8" rx="2"></rect></g><g transform="translate(892 104)"><path fill="#3C4ACE" d="M48 0h4v88h-4z"></path><path d="M52 0h44a4 4 0 0 1 4 4v24a4 4 0 0 1-4 4H52V0zM4 0h44v32H4a4 4 0 0 1-4-4V4a4 4 0 0 1 4-4z" fill="#5063F0"></path><rect fill="#7AC1FC" x="60" y="8" width="32" height="8" rx="2"></rect><rect fill="#7AC1FC" x="8" y="8" width="32" height="8" rx="2"></rect><rect fill="#7AC1FC" x="60" y="20" width="16" height="4" rx="2"></rect><rect fill="#7AC1FC" x="8" y="20" width="16" height="4" rx="2"></rect></g><g transform="translate(928 144)"><path d="M.927 22.887L18.801 1.44A4 4 0 0 1 21.873 0h52.254a4 4 0 0 1 3.072 1.44l17.874 21.447A4 4 0 0 1 96 25.448V48H0V25.448a4 4 0 0 1 .927-2.56z" fill="#6796F4"></path><path d="M.92 22.76l16-19.305a4 4 0 0 1 6.16 0l16 19.304a4 4 0 0 1 .92 2.553V48H0V25.312a4 4 0 0 1 .92-2.553z" fill="#5063F0"></path><rect fill="#7AC1FC" x="48" y="28" width="8" height="12" rx="2"></rect><rect fill="#7AC1FC" x="64" y="28" width="8" height="12" rx="2"></rect><rect fill="#7AC1FC" x="80" y="28" width="8" height="12" rx="2"></rect><path d="M16 32h8a2 2 0 0 1 2 2v14H14V34a2 2 0 0 1 2-2z" fill="#3C4ACE"></path></g><g transform="translate(652 48)"><path d="M4 0h80a4 4 0 0 1 4 4v140H0V4a4 4 0 0 1 4-4z" fill="#6796F4"></path><rect fill="#7AC1FC" x="40" y="48" width="16" height="8" rx="4"></rect><rect fill="#7AC1FC" x="40" y="16" width="16" height="8" rx="4"></rect><rect fill="#7AC1FC" x="40" y="64" width="16" height="8" rx="4"></rect><rect fill="#7AC1FC" x="40" y="32" width="16" height="8" rx="4"></rect><rect fill="#7AC1FC" x="40" y="96" width="16" height="8" rx="4"></rect><rect fill="#7AC1FC" x="40" y="80" width="16" height="8" rx="4"></rect><rect fill="#7AC1FC" x="40" y="112" width="16" height="8" rx="4"></rect><path d="M4 0h24a4 4 0 0 1 4 4v140H0V4a4 4 0 0 1 4-4z" fill="#5063F0"></path><rect fill="#3C4ACE" x="16" y="48" width="8" height="8" rx="4"></rect><rect fill="#3C4ACE" x="16" y="16" width="8" height="8" rx="4"></rect><rect fill="#3C4ACE" x="16" y="64" width="8" height="8" rx="4"></rect><rect fill="#3C4ACE" x="16" y="32" width="8" height="8" rx="4"></rect><rect fill="#3C4ACE" x="16" y="80" width="8" height="8" rx="4"></rect><rect fill="#3C4ACE" x="16" y="96" width="8" height="8" rx="4"></rect><rect fill="#3C4ACE" x="16" y="112" width="8" height="8" rx="4"></rect></g><path d="M794 112h4a4 4 0 0 1 4 4v48a4 4 0 0 1-4 4h-4v-56zM770 96h20a4 4 0 0 1 4 4v92h-24V96zM578 168h8v24h-8z" fill="#9B3E3E"></path><path d="M566 96h216a4 4 0 0 1 4 4v92h-16v-76a4 4 0 0 0-4-4H582a4 4 0 0 0-4 4v76h-16v-92a4 4 0 0 1 4-4z" fill="#C66767"></path><path fill="#9B3E3E" d="M754 116h16v48h-16z"></path><path d="M550 116h208a4 4 0 0 1 4 4v40a4 4 0 0 1-4 4H550v-48z" fill="#F9A5B1"></path><path d="M548 112h220a2 2 0 0 1 2 2v2H548a2 2 0 1 1 0-4zM548 164h222v4H548a2 2 0 1 1 0-4z" fill="#9B3E3E"></path><path fill="#E0868B" d="M558 116h4v48h-4zM570 116h4v48h-4zM582 116h4v48h-4zM594 116h4v48h-4zM606 116h4v48h-4zM618 116h4v48h-4zM630 116h4v48h-4zM642 116h4v48h-4zM654 116h4v48h-4zM666 116h4v48h-4zM678 116h4v48h-4zM690 116h4v48h-4zM702 116h4v48h-4zM714 116h4v48h-4zM726 116h4v48h-4zM738 116h4v48h-4zM750 116h4v48h-4z"></path><path fill="#E0868B" d="M550 138h212v4H550z"></path><path fill="#9B3E3E" d="M738 168h16l-24 24h-16z"></path><path fill="#C66767" d="M738 168h8l-24 24h-8z"></path><path d="M716 184h6v8h-8v-6a2 2 0 0 1 2-2zM724 176h6v8h-8v-6a2 2 0 0 1 2-2zM732 168h6v8h-8v-6a2 2 0 0 1 2-2z" fill="#C66767"></path><g transform="translate(232 24)"><path d="M8 8h8v160H0V16a8 8 0 0 1 8-8z" fill="#3C4ACE"></path><path d="M10 52h6v12h-6a2 2 0 0 1-2-2v-8a2 2 0 0 1 2-2zM10 32h6v12h-6a2 2 0 0 1-2-2v-8a2 2 0 0 1 2-2zM10 72h6v12h-6a2 2 0 0 1-2-2v-8a2 2 0 0 1 2-2zM10 92h6v12h-6a2 2 0 0 1-2-2v-8a2 2 0 0 1 2-2zM10 112h6v12h-6a2 2 0 0 1-2-2v-8a2 2 0 0 1 2-2zM10 132h6v12h-6a2 2 0 0 1-2-2v-8a2 2 0 0 1 2-2z" fill="#2236AF"></path><path d="M24 0h24a8 8 0 0 1 8 8v160H16V8a8 8 0 0 1 8-8z" fill="#5063F0"></path><path d="M48 0a8 8 0 0 1 8 8v160H40V8a8 8 0 0 1 8-8z" fill="#6796F4"></path><rect fill="#3C4ACE" x="32" y="8" width="2" height="8" rx="1"></rect><rect fill="#3C4ACE" x="28" y="8" width="2" height="8" rx="1"></rect><rect fill="#3C4ACE" x="24" y="8" width="2" height="8" rx="1"></rect><path d="M26 52h14v12H26a2 2 0 0 1-2-2v-8a2 2 0 0 1 2-2zM26 32h14v12H26a2 2 0 0 1-2-2v-8a2 2 0 0 1 2-2z" fill="#3C4ACE"></path><path d="M40 52h6a2 2 0 0 1 2 2v8a2 2 0 0 1-2 2h-6V52zM40 32h6a2 2 0 0 1 2 2v8a2 2 0 0 1-2 2h-6V32zM40 72h6a2 2 0 0 1 2 2v8a2 2 0 0 1-2 2h-6V72zM40 92h6a2 2 0 0 1 2 2v8a2 2 0 0 1-2 2h-6V92zM40 112h6a2 2 0 0 1 2 2v8a2 2 0 0 1-2 2h-6v-12zM40 132h6a2 2 0 0 1 2 2v8a2 2 0 0 1-2 2h-6v-12z" fill="#7AC1FC"></path><path d="M26 72h14v12H26a2 2 0 0 1-2-2v-8a2 2 0 0 1 2-2zM26 112h14v12H26a2 2 0 0 1-2-2v-8a2 2 0 0 1 2-2zM26 92h14v12H26a2 2 0 0 1-2-2v-8a2 2 0 0 1 2-2zM26 132h14v12H26a2 2 0 0 1-2-2v-8a2 2 0 0 1 2-2z" fill="#3C4ACE"></path></g><g transform="translate(392 94)"><path d="M4 16h64a4 4 0 0 1 4 4v78H0V20a4 4 0 0 1 4-4zM12 0h22.789a4 4 0 0 1 2.219.672L60 16H8V4a4 4 0 0 1 4-4z" fill="#EDA4E7"></path><path d="M4 16a4 4 0 0 0 4-4V6.893a4 4 0 0 1 5.985-3.473l20 11.428A4 4 0 0 1 36 18.321V98H0V20a4 4 0 0 1 4-4z" fill="#C66DC4"></path><rect fill="#AD4EAD" x="8" y="32" width="8" height="8" rx="2"></rect><rect fill="#AD4EAD" x="8" y="48" width="8" height="8" rx="2"></rect><rect fill="#AD4EAD" x="8" y="64" width="8" height="8" rx="2"></rect><rect fill="#FFCAFE" x="44" y="32" width="20" height="8" rx="2"></rect><rect fill="#FFCAFE" x="44" y="48" width="20" height="8" rx="2"></rect><rect fill="#FFCAFE" x="44" y="64" width="20" height="8" rx="2"></rect><rect fill="#AD4EAD" x="20" y="32" width="8" height="8" rx="2"></rect><rect fill="#AD4EAD" x="20" y="48" width="8" height="8" rx="2"></rect><rect fill="#AD4EAD" x="20" y="64" width="8" height="8" rx="2"></rect></g><g transform="translate(296 28)"><path d="M44 148h64a4 4 0 0 1 4 4v12H40v-12a4 4 0 0 1 4-4z" fill="#417F75"></path><path d="M48 140h56a4 4 0 0 1 4 4v4H44v-4a4 4 0 0 1 4-4z" fill="#55A595"></path><path d="M76 0c6.627 0 12 5.373 12 12v28H64V12c0-6.627 5.373-12 12-12z" fill="#417F75"></path><path fill="#E9E7E6" d="M56 52h40v88H56z"></path><path fill="#D9D6D3" d="M86 52h4v88h-4zM74 52h4v88h-4zM62 52h4v88h-4z"></path><path d="M2.795 32h146.41a2.794 2.794 0 0 1 2.522 4 7.035 7.035 0 0 1-6.347 4H6.62a7.035 7.035 0 0 1-6.346-4 2.794 2.794 0 0 1 2.521-4z" fill="#E9E7E6"></path><path d="M138.295 32L123.19 54.247A4 4 0 0 1 119.881 56H104a4 4 0 0 0-4 4v62.45a4 4 0 0 1-5.265 3.795l-40-13.333A4 4 0 0 1 52 109.117V60a4 4 0 0 0-4-4H32.14a4 4 0 0 1-3.327-1.781L14 32h124.295z" fill="#FFDA95"></path><path d="M88 32h4v74a2 2 0 0 1-4 0V32zM100 32h2v19a1 1 0 1 1-2 0V32zM76 45.967V50c-9.941 0-18-8.059-18-18h4.033c.493 7.488 6.48 13.474 13.967 13.967zM48 32c0 15.464 12.536 28 28 28v2c-16.569 0-30-13.431-30-30h2z" fill="#FFC875"></path><path d="M68 32h16a8 8 0 1 1-16 0z" fill="#D9D6D3"></path><path d="M72 20h8v12a4 4 0 1 1-8 0V20z" fill="#D9D6D3"></path><rect fill="#D9D6D3" x="68" y="4" width="16" height="24" rx="8"></rect><rect fill="#E9E7E6" x="68" y="4" width="16" height="22" rx="8"></rect></g><g><g transform="translate(264 134)"><path d="M.927 22.887L18.801 1.44A4 4 0 0 1 21.873 0h36.254a4 4 0 0 1 3.072 1.44l17.874 21.447A4 4 0 0 1 80 25.448V58H0V25.448a4 4 0 0 1 .927-2.56z" fill="#72CCAE"></path><path d="M.922 22.728l16-19.277a4 4 0 0 1 6.156 0l16 19.277A4 4 0 0 1 40 25.283V58H0V25.283a4 4 0 0 1 .922-2.555z" fill="#55A595"></path><rect fill="#98EDCC" x="52" y="30" width="16" height="16" rx="2"></rect><path d="M16 42h8a2 2 0 0 1 2 2v14H14V44a2 2 0 0 1 2-2z" fill="#417F75"></path></g><path d="M336 134h4a4 4 0 0 1 4 4v52a2 2 0 0 1-2 2h-8a2 2 0 0 1-2-2v-52a4 4 0 0 1 4-4z" fill="#72CCAE"></path></g><g transform="translate(160 48)"><path d="M3.132 7.304L34.265.386a8 8 0 0 1 3.47 0l31.133 6.918A4 4 0 0 1 72 11.209V144H0V11.209a4 4 0 0 1 3.132-3.905z" fill="#EDA4E7"></path><rect fill="#FFCAFE" x="44" y="48" width="8" height="8" rx="2"></rect><rect fill="#FFCAFE" x="44" y="16" width="8" height="8" rx="2"></rect><rect fill="#FFCAFE" x="44" y="64" width="8" height="8" rx="2"></rect><rect fill="#FFCAFE" x="44" y="32" width="8" height="8" rx="2"></rect><rect fill="#FFCAFE" x="44" y="96" width="8" height="8" rx="2"></rect><rect fill="#FFCAFE" x="44" y="80" width="8" height="8" rx="2"></rect><rect fill="#FFCAFE" x="44" y="112" width="8" height="8" rx="2"></rect><rect fill="#FFCAFE" x="56" y="48" width="8" height="8" rx="2"></rect><rect fill="#FFCAFE" x="56" y="16" width="8" height="8" rx="2"></rect><rect fill="#FFCAFE" x="56" y="64" width="8" height="8" rx="2"></rect><rect fill="#FFCAFE" x="56" y="32" width="8" height="8" rx="2"></rect><rect fill="#FFCAFE" x="56" y="96" width="8" height="8" rx="2"></rect><rect fill="#FFCAFE" x="56" y="80" width="8" height="8" rx="2"></rect><rect fill="#FFCAFE" x="56" y="112" width="8" height="8" rx="2"></rect><path d="M3.132 7.304l28-6.222A4 4 0 0 1 36 4.986V144H0V11.209a4 4 0 0 1 3.132-3.905z" fill="#C66DC4"></path><rect fill="#AD4EAD" x="8" y="48" width="20" height="8" rx="2"></rect><rect fill="#AD4EAD" x="8" y="16" width="20" height="8" rx="2"></rect><rect fill="#AD4EAD" x="8" y="64" width="20" height="8" rx="2"></rect><rect fill="#AD4EAD" x="8" y="32" width="20" height="8" rx="2"></rect><rect fill="#AD4EAD" x="8" y="80" width="20" height="8" rx="2"></rect><rect fill="#AD4EAD" x="8" y="96" width="20" height="8" rx="2"></rect><rect fill="#AD4EAD" x="8" y="112" width="20" height="8" rx="2"></rect></g><g transform="translate(72 72)"><path d="M4 12h64a4 4 0 0 1 4 4v104H0V16a4 4 0 0 1 4-4zM12 0h48a4 4 0 0 1 4 4v8H8V4a4 4 0 0 1 4-4z" fill="#55A595"></path><path d="M36 12h32a4 4 0 0 1 4 4v104H36V12zM40 0h20a4 4 0 0 1 4 4v8H36V4a4 4 0 0 1 4-4z" fill="#72CCAE"></path><rect fill="#417F75" x="8" y="24" width="8" height="8" rx="2"></rect><rect fill="#417F75" x="26" y="4" width="2" height="8" rx="1"></rect><rect fill="#98EDCC" x="56" y="4" width="2" height="8" rx="1"></rect><rect fill="#417F75" x="20" y="4" width="2" height="8" rx="1"></rect><rect fill="#98EDCC" x="50" y="4" width="2" height="8" rx="1"></rect><rect fill="#417F75" x="14" y="4" width="2" height="8" rx="1"></rect><rect fill="#98EDCC" x="44" y="4" width="2" height="8" rx="1"></rect><rect fill="#417F75" x="8" y="40" width="8" height="8" rx="2"></rect><rect fill="#417F75" x="8" y="56" width="8" height="8" rx="2"></rect><rect fill="#417F75" x="8" y="88" width="8" height="8" rx="2"></rect><rect fill="#417F75" x="20" y="88" width="8" height="8" rx="2"></rect><rect fill="#417F75" x="8" y="72" width="8" height="8" rx="2"></rect><rect fill="#417F75" x="20" y="24" width="8" height="8" rx="2"></rect><rect fill="#98EDCC" x="44" y="24" width="20" height="8" rx="2"></rect><rect fill="#98EDCC" x="44" y="40" width="20" height="8" rx="2"></rect><rect fill="#98EDCC" x="44" y="56" width="20" height="8" rx="2"></rect><rect fill="#98EDCC" x="44" y="72" width="20" height="8" rx="2"></rect><rect fill="#98EDCC" x="44" y="88" width="20" height="8" rx="2"></rect><rect fill="#417F75" x="20" y="40" width="8" height="8" rx="2"></rect><rect fill="#417F75" x="20" y="56" width="8" height="8" rx="2"></rect><rect fill="#417F75" x="20" y="72" width="8" height="8" rx="2"></rect></g><g transform="translate(120 126)"><path d="M.927 22.887L18.801 1.44A4 4 0 0 1 21.873 0h20.254a4 4 0 0 1 3.072 1.44l17.874 21.447A4 4 0 0 1 64 25.448V66H0V25.448a4 4 0 0 1 .927-2.56z" fill="#5063F0"></path><path d="M24.927 22.887l16-19.2a4 4 0 0 1 6.146 0l16 19.2A4 4 0 0 1 64 25.448V66H24V25.448a4 4 0 0 1 .927-2.56z" fill="#6796F4"></path><rect fill="#3C4ACE" x="6" y="48" width="12" height="12" rx="2"></rect><rect fill="#3C4ACE" x="6" y="28" width="12" height="12" rx="2"></rect><path d="M40 50h8a2 2 0 0 1 2 2v14H38V52a2 2 0 0 1 2-2z" fill="#7AC1FC"></path></g><g transform="translate(48 120)"><path d="M25.653 69.59C40.55 47.725 48 32.528 48 24 48 10.745 37.255 0 24 0S0 10.745 0 24c0 8.527 7.449 23.724 22.347 45.59a2 2 0 0 0 3.306 0z" fill="#AD4EAD"></path><circle fill="#EDA4E7" cx="24" cy="24" r="8"></circle></g><g transform="translate(8 148)"><path d="M.927 22.887L18.801 1.44A4 4 0 0 1 21.873 0h20.254a4 4 0 0 1 3.072 1.44l17.874 21.447A4 4 0 0 1 64 25.448V44H0V25.448a4 4 0 0 1 .927-2.56z" fill="#5063F0"></path><path d="M24.927 22.887l16-19.2a4 4 0 0 1 6.146 0l16 19.2A4 4 0 0 1 64 25.448V44H24V25.448a4 4 0 0 1 .927-2.56z" fill="#6796F4"></path><rect fill="#3C4ACE" x="8" y="28" width="8" height="8" rx="2"></rect><path d="M40 28h8a2 2 0 0 1 2 2v14H38V30a2 2 0 0 1 2-2z" fill="#7AC1FC"></path></g><g><path d="M234 180c13.255 0 24-7.675 24-17.143S247.255 120 234 120s-24 33.39-24 42.857c0 9.468 10.745 17.143 24 17.143z" fill="#72CCAE"></path><path d="M234 177c8.837 0 16-7.163 16-16s-7.163-16-16-16-16 7.163-16 16 7.163 16 16 16z" fill="#98EDCC"></path><path d="M234 154a2 2 0 0 1 2 2v36h-4v-36a2 2 0 0 1 2-2z" fill="#417F75"></path><path d="M223.414 165.414a2 2 0 0 1 2.829 0l9.9 9.9-2.83 2.828-9.899-9.9a2 2 0 0 1 0-2.828zM244.728 157.414a2 2 0 0 1 0 2.829l-9.9 9.9-2.828-2.83 9.9-9.899a2 2 0 0 1 2.828 0z" fill="#417F75"></path></g><g><path d="M468 192c0-17.673-14.327-32-32-32-17.673 0-32 14.327-32 32h64z" fill="#55A595"></path><path d="M460 192c0-11.046-8.954-20-20-20s-20 8.954-20 20h40z" fill="#417F75"></path><path d="M500 192c0-17.673-14.327-32-32-32-17.673 0-32 14.327-32 32h64z" fill="#72CCAE"></path><path d="M476 192c0-8.837-7.163-16-16-16s-16 7.163-16 16h32z" fill="#98EDCC"></path><path d="M492 192c0-6.627-5.373-12-12-12s-12 5.373-12 12h24z" fill="#98EDCC"></path></g><g><path d="M846 179.75c14.912 0 27-12.088 27-27s-12.088-27-27-27-27 12.088-27 27 12.088 27 27 27z" fill="#72CCAE"></path><path d="M846 176.75c8.837 0 16-7.163 16-16s-7.163-16-16-16-16 7.163-16 16 7.163 16 16 16z" fill="#98EDCC"></path><path d="M846 153.75a2 2 0 0 1 2 2v36h-4v-36a2 2 0 0 1 2-2z" fill="#417F75"></path><path d="M835.414 157.164a2 2 0 0 1 2.829 0l9.9 9.9-2.83 2.828-9.899-9.9a2 2 0 0 1 0-2.828zM856.728 165.164a2 2 0 0 1 0 2.829l-9.9 9.9-2.828-2.83 9.9-9.899a2 2 0 0 1 2.828 0z" fill="#417F75"></path></g><g><path d="M942 72h24v24h-24z"></path><path d="M945 93a2 2 0 0 0 2-2v-8a2 2 0 1 0-4 0v8a2 2 0 0 0 2 2zm20-11c0-1.1-.9-2-2-2h-3.851a2 2 0 0 1-1.959-2.407l.45-2.163.03-.32c0-.41-.17-.79-.44-1.06a1.498 1.498 0 0 0-2.114.006l-5.526 5.534c-.37.36-.59.86-.59 1.41v10c0 1.1.9 2 2 2h9c.83 0 1.54-.5 1.84-1.22l3.02-7.05c.09-.23.14-.47.14-.73v-2z" fill="#5063F0" fill-rule="nonzero"></path></g><g><path d="M668 16h24v24h-24z"></path><path d="M679.99 18c5.53 0 10.01 4.48 10.01 10s-4.48 10-10.01 10c-5.52 0-9.99-4.48-9.99-10s4.47-10 9.99-10zm.01 16a5 5 0 0 0 5-5h-10a5 5 0 0 0 5 5zm3.5-8c.83 0 1.5-.67 1.5-1.5s-.67-1.5-1.5-1.5-1.5.67-1.5 1.5.67 1.5 1.5 1.5zm-7 0c.83 0 1.5-.67 1.5-1.5s-.67-1.5-1.5-1.5-1.5.67-1.5 1.5.67 1.5 1.5 1.5z" fill="#F8D48B" fill-rule="nonzero"></path></g><g><path d="M296 98h28v28h-28z"></path><path d="M310.239 109.667c-.932-2.719-3.455-4.667-6.42-4.667-3.762 0-6.819 3.138-6.819 7s3.057 7 6.818 7c2.966 0 5.489-1.948 6.42-4.667h1.474a2.333 2.333 0 0 1 2.333 2.334v.06a2.273 2.273 0 0 0 4.545 0v-.69c0-.94.764-1.704 1.705-1.704.942 0 1.705-.763 1.705-1.704V112a2.333 2.333 0 0 0-2.333-2.333h-9.428zm-6.42 4.666c-1.25 0-2.274-1.05-2.274-2.333 0-1.283 1.023-2.333 2.273-2.333 1.25 0 2.273 1.05 2.273 2.333 0 1.283-1.023 2.333-2.273 2.333z" fill="#EDA4E7" fill-rule="nonzero"></path></g><g><path d="M96 40h24v24H96z"></path><path d="M106.555 60.035l-.005-.005C101.4 55.36 98 52.28 98 48.5c0-3.08 2.42-5.5 5.5-5.5 1.74 0 3.41.81 4.5 2.09 1.09-1.28 2.76-2.09 4.5-2.09 3.08 0 5.5 2.42 5.5 5.5 0 3.78-3.4 6.86-8.55 11.54a2.155 2.155 0 0 1-2.895-.005z" fill="#E0868B" fill-rule="nonzero"></path></g></g></svg>
