<svg xmlns="http://www.w3.org/2000/svg" viewBox="0 0 570.83 130.27"><defs><style>.cls-1{fill:#a41521;}.cls-2{fill:#f05447;}.cls-3{fill:#e20916;}.cls-4{fill:#64131a;}.cls-5{fill:#8e734a;}</style></defs><title>Vortx_completo_color_horizontal</title><g id="Background"><path class="cls-1" d="M270.47,246.29c-5.36,4.89-11.08,6.59-17,5.35l10.33-18.41h13.67Z" transform="translate(-135.53 -233.23)"/><path class="cls-1" d="M189.32,285.26l-30-52,27.57,0c2.86,13.81,10.76,26.16,23.76,38.62C210.65,271.87,202.31,286.91,189.32,285.26Z" transform="translate(-135.53 -233.23)"/><path class="cls-2" d="M233.28,287.67l20.21-36a64.66,64.66,0,0,0,17-5.35L245.35,293c-2.87,3-6,1.49-8.25.49C235.29,292.69,232.8,291.49,233.28,287.67Z" transform="translate(-135.53 -233.23)"/><path class="cls-3" d="M227.56,326.14,245.35,293a109,109,0,0,1-12.07-5.35l-18.56,33.1c-.78,4.36,2,5.77,4.21,6.71C221,328.32,224.89,329.19,227.56,326.14Z" transform="translate(-135.53 -233.23)"/><path class="cls-4" d="M149.1,233.23l31.29,54.27v0s-9.43,2.69-13.89,1.8l-31-56.1Z" transform="translate(-135.53 -233.23)"/><path class="cls-1" d="M166.51,289.33a109,109,0,0,0,13.88-1.83l26.75,46.58,7.61-13.38a54.79,54.79,0,0,0,12.81,5.44l-1.89,3.51c-3.76,6.08-10.67,12.76-17.45,15.91-3.54,1.65-7.81,3-11-.6Z" transform="translate(-135.53 -233.23)"/><path class="cls-3" d="M210.65,271.87c-12.58-11.62-21.44-25.73-23.76-38.62l11.48,0c13.86,3.44,27.84,13.5,32,17.56C232.52,260.32,214.52,273.34,210.65,271.87Z" transform="translate(-135.53 -233.23)"/><path class="cls-4" d="M207.14,363.5,197.24,345a86.24,86.24,0,0,0,28.43-15.31Z" transform="translate(-135.53 -233.23)"/><path class="cls-3" d="M224.34,285.49l-17.2,30.67-17.82-30.9a86,86,0,0,0,21.33-13.39s4.23-.94,9.5,4.29C224.75,280.75,224.29,285.46,224.34,285.49Z" transform="translate(-135.53 -233.23)"/><path class="cls-2" d="M241.39,233.23c2.43,3.29.24,7-1.46,9.74-1.93,3.14-5.25,7.53-9.52,7.82-10.92-2.59-21.77-8.52-32-17.56Z" transform="translate(-135.53 -233.23)"/><path class="cls-1" d="M242.92,252.39l10.74-19.16H241.39a163.81,163.81,0,0,1-11,17.56C231.85,254.67,237.37,254.93,242.92,252.39Z" transform="translate(-135.53 -233.23)"/><path class="cls-2" d="M210.65,271.87a84.07,84.07,0,0,0,19.76-21.08,61.86,61.86,0,0,0,12.51,1.6l-18.58,33.1S211.37,272.71,210.65,271.87Z" transform="translate(-135.53 -233.23)"/></g><g id="v"><path class="cls-5" d="M446.55,295.09a34,34,0,0,0-3-14.38l18.17-7.37a51.43,51.43,0,0,1,4.49,21.75c0,29.67-20.59,46.42-44,46.42-23.66,0-44.12-16.62-44.12-46.42,0-28.91,20.46-46.17,44.12-46.17a46.84,46.84,0,0,1,14.13,2.13L432.32,269a23,23,0,0,0-10.07-2.29c-13.43,0-24.3,10.62-24.3,28.4,0,18.29,11.26,28.52,24.3,28.52S446.55,313.5,446.55,295.09Z" transform="translate(-135.53 -233.23)"/><path class="cls-5" d="M459.05,268.36l-23.12,10.18,6.18-25.23A40.9,40.9,0,0,1,459.05,268.36Z" transform="translate(-135.53 -233.23)"/><path class="cls-5" d="M575.08,337.05v-67a2.82,2.82,0,0,0-2.82-2.82H551.8a2.85,2.85,0,0,1-2.92-2.83V250.36h68.55a2.86,2.86,0,0,1,3,2.82c0,.11,0,.22,0,.33l0,13.73H597.1a2.82,2.82,0,0,0-2.82,2.82v69.81H578A2.84,2.84,0,0,1,575.08,337.05Z" transform="translate(-135.53 -233.23)"/><path class="cls-5" d="M651.85,295.44a3.09,3.09,0,0,0,.4-1.49,2.81,2.81,0,0,0-.42-1.49l-26.41-42.1h20.51a2.84,2.84,0,0,1,2.47,1.41l16.91,27.62,16.76-27.57a2.84,2.84,0,0,1,2.48-1.46h20l-26,41a2.87,2.87,0,0,0-.45,1.54,2.81,2.81,0,0,0,.26,1.2l28,45.81H685.83a2.81,2.81,0,0,1-2.52-1.54L665.06,308l-19.82,31.84H628.88a2.83,2.83,0,0,1-2.37-4.36Z" transform="translate(-135.53 -233.23)"/><path class="cls-5" d="M497.53,286.33H512.3c6.27,0,10.49-3.58,10.49-9.72,0-5.62-4.48-9.33-10.74-9.33H494.91v16.5A2.82,2.82,0,0,0,497.53,286.33Zm31.84,12.46-.67.37C529,299,529.23,298.88,529.37,298.79ZM476,253.22a2.82,2.82,0,0,1,2.82-2.82H514c16,0,28.39,10,28.39,25.7,0,7.42-1.92,12.92-6.9,18a25.51,25.51,0,0,1-6.05,4.65c-.17.1-.4.23-.7.38-.92.46-2.36,1.38-1.71,3l21.76,37.76h-20.3a2.82,2.82,0,0,1-2.47-1.4l-19.21-34.58a2.31,2.31,0,0,0-2-1.1h-7.08a2.82,2.82,0,0,0-2.82,2.73v34.35h-16a2.84,2.84,0,0,1-2.91-2.82V253.22Z" transform="translate(-135.53 -233.23)"/><path class="cls-5" d="M357.63,252.23l.14-.34A2,2,0,0,0,357.63,252.23ZM318,250.36a2.67,2.67,0,0,1,2.52,1.79l17.72,45a1,1,0,0,0,1.84,0l17.57-45a2,2,0,0,1,.14-.34,2.64,2.64,0,0,1,2.4-1.53h21.72l-43,97.46-43.16-97.46Z" transform="translate(-135.53 -233.23)"/></g></svg>